<?xml version="1.0" encoding="UTF-8" standalone="no"?>
<svg
   xmlns:dc="http://purl.org/dc/elements/1.1/"
   xmlns:cc="http://creativecommons.org/ns#"
   xmlns:rdf="http://www.w3.org/1999/02/22-rdf-syntax-ns#"
   xmlns:svg="http://www.w3.org/2000/svg"
   xmlns="http://www.w3.org/2000/svg"
   xmlns:sodipodi="http://sodipodi.sourceforge.net/DTD/sodipodi-0.dtd"
   xmlns:inkscape="http://www.inkscape.org/namespaces/inkscape"
   version="1.1"
   id="svg2"
   width="128.14668"
   height="30"
   viewBox="0 0 128.14668 30"
   sodipodi:docname="press-1.png.svg"
   inkscape:version="1.0.1 (3bc2e813f5, 2020-09-07)">
  <metadata
     id="metadata8">
    <rdf:RDF>
      <cc:Work
         rdf:about="">
        <dc:format>image/svg+xml</dc:format>
        <dc:type
           rdf:resource="http://purl.org/dc/dcmitype/StillImage" />
        <dc:title></dc:title>
      </cc:Work>
    </rdf:RDF>
  </metadata>
  <defs
     id="defs6">
    <clipPath
       clipPathUnits="userSpaceOnUse"
       id="clipPath48">
      <path
         d="M 0,640 H 1425 V 0 H 0 Z"
         id="path46" />
    </clipPath>
    <clipPath
       clipPathUnits="userSpaceOnUse"
       id="clipPath272">
      <path
         d="M 0,640 H 1425 V 0 H 0 Z"
         id="path270" />
    </clipPath>
  </defs>
  <sodipodi:namedview
     pagecolor="#ffffff"
     bordercolor="#666666"
     borderopacity="1"
     objecttolerance="10"
     gridtolerance="10"
     guidetolerance="10"
     inkscape:pageopacity="0"
     inkscape:pageshadow="2"
     inkscape:window-width="1366"
     inkscape:window-height="704"
     id="namedview4"
     showgrid="false"
     inkscape:zoom="3.2312462"
     inkscape:cx="99.576052"
     inkscape:cy="20.906217"
     inkscape:window-x="0"
     inkscape:window-y="0"
     inkscape:window-maximized="1"
     inkscape:current-layer="g10"
     fit-margin-top="0"
     fit-margin-left="0"
     fit-margin-right="0"
     fit-margin-bottom="0" />
  <g
     inkscape:groupmode="layer"
     inkscape:label="Image"
     id="g10"
     transform="translate(3.373439,0.045435)">
    <g
       id="g268"
       clip-path="url(#clipPath272)"
       transform="matrix(0.125,0,0,-0.125,-28.373439,54.954565)">
      <g
         id="g274"
         transform="translate(440,320)">
        <path
           d="m 0,0 c 0,-66.274 -53.726,-120 -120,-120 -66.274,0 -120,53.726 -120,120 0,66.274 53.726,120 120,120 C -53.726,120 0,66.274 0,0"
           style="fill:#da552f;fill-opacity:1;fill-rule:nonzero;stroke:none"
           id="path276" />
      </g>
      <g
         id="g278"
         transform="translate(336,320.0004)">
        <path
           d="m 0,0 v -0.001 h -34 v 36 H 0 V 36 C 9.941,36 18,27.941 18,18 18,8.059 9.941,0 0,0 M 0,60 V 59.999 L -58,60 V -60 h 24 v 35.999 H 0 V -24 c 23.196,0 42,18.804 42,42 0,23.196 -18.804,42 -42,42"
           style="fill:#ffffff;fill-opacity:1;fill-rule:nonzero;stroke:none"
           id="path280" />
      </g>
      <g
         id="g282"
         transform="translate(566.0679,334.6684)">
        <path
           d="m 0,0 c 0,6.6 -5.075,10.606 -11.666,10.606 h -17.671 v -21.092 h 17.671 C -5.075,-10.486 0,-6.48 0,0 m -46.068,-54.668 v 80 H -9.315 C 7.771,25.332 17.076,13.786 17.076,0 c 0,-13.666 -9.42,-25.212 -26.391,-25.212 h -20.022 v -29.456 z"
           style="fill:#da552f;fill-opacity:1;fill-rule:nonzero;stroke:none"
           id="path284" />
      </g>
      <g
         id="g286"
         transform="translate(593.3229,280)">
        <path
           d="m 0,0 v 58.324 h 14.956 v -7.661 c 4.125,4.95 11.081,9.071 18.151,9.071 V 45.128 c -1.065,0.235 -2.36,0.35 -4.125,0.35 -4.95,0 -11.551,-2.825 -14.026,-6.481 V 0 Z"
           style="fill:#da552f;fill-opacity:1;fill-rule:nonzero;stroke:none"
           id="path288" />
      </g>
      <g
         id="g290"
         transform="translate(676.7574,309.9268)">
        <path
           d="m 0,0 c 0,8.836 -5.19,16.496 -14.611,16.496 -9.315,0 -14.496,-7.66 -14.496,-16.496 0,-8.956 5.181,-16.611 14.496,-16.611 C -5.19,-16.611 0,-8.956 0,0 m -44.658,0 c 0,16.141 11.311,29.807 30.047,29.807 18.851,0 30.162,-13.666 30.162,-29.807 0,-16.141 -11.311,-29.927 -30.162,-29.927 -18.736,0 -30.047,13.786 -30.047,29.927"
           style="fill:#da552f;fill-opacity:1;fill-rule:nonzero;stroke:none"
           id="path292" />
      </g>
      <g
         id="g294"
         transform="translate(742.655,299.7961)">
        <path
           d="m 0,0 v 20.146 c -2.475,3.771 -7.895,6.481 -12.846,6.481 -8.595,0 -14.486,-6.716 -14.486,-16.496 0,-9.896 5.891,-16.611 14.486,-16.611 4.951,0 10.371,2.71 12.846,6.48 m 0,-19.796 v 8.72 c -4.48,-5.655 -10.601,-8.72 -17.556,-8.72 -14.256,0 -25.212,10.84 -25.212,29.927 0,18.496 10.726,29.807 25.212,29.807 6.715,0 13.076,-2.826 17.556,-8.716 v 28.982 h 15.081 v -80 z"
           style="fill:#da552f;fill-opacity:1;fill-rule:nonzero;stroke:none"
           id="path296" />
      </g>
      <g
         id="g298"
         transform="translate(811.0277,280)">
        <path
           d="M 0,0 V 8.601 C -3.885,4.36 -10.716,0 -20.022,0 -32.512,0 -38.403,6.835 -38.403,17.911 v 40.413 h 14.957 V 23.801 c 0,-7.895 4.125,-10.485 10.485,-10.485 5.775,0 10.371,3.18 12.961,6.48 V 58.324 H 14.966 V 0 Z"
           style="fill:#da552f;fill-opacity:1;fill-rule:nonzero;stroke:none"
           id="path300" />
      </g>
      <g
         id="g302"
         transform="translate(837.2275,309.9268)">
        <path
           d="m 0,0 c 0,17.436 12.721,29.807 30.162,29.807 11.666,0 18.736,-5.065 22.506,-10.251 l -9.785,-9.185 c -2.706,4.005 -6.831,6.125 -12.011,6.125 -9.076,0 -15.436,-6.6 -15.436,-16.496 0,-9.896 6.36,-16.611 15.436,-16.611 5.18,0 9.305,2.355 12.011,6.245 l 9.785,-9.19 C 48.898,-24.742 41.828,-29.927 30.162,-29.927 12.721,-29.927 0,-17.556 0,0"
           style="fill:#da552f;fill-opacity:1;fill-rule:nonzero;stroke:none"
           id="path304" />
      </g>
      <g
         id="g306"
         transform="translate(902.7605,295.6709)">
        <path
           d="M 0,0 V 29.572 H -9.421 V 42.653 H 0 V 58.204 H 14.966 V 42.653 H 26.507 V 29.572 H 14.966 V 4.005 c 0,-3.65 1.88,-6.36 5.18,-6.36 2.236,0 4.365,0.825 5.181,1.765 l 3.185,-11.426 C 26.277,-14.021 22.266,-15.671 16.021,-15.671 5.535,-15.671 0,-10.251 0,0"
           style="fill:#da552f;fill-opacity:1;fill-rule:nonzero;stroke:none"
           id="path308" />
      </g>
      <g
         id="g310"
         transform="translate(1025.111,280)">
        <path
           d="M 0,0 V 34.522 H -37.117 V 0 h -16.722 v 80 h 16.722 V 49.133 H 0 V 80 H 16.846 V 0 Z"
           style="fill:#da552f;fill-opacity:1;fill-rule:nonzero;stroke:none"
           id="path312" />
      </g>
      <g
         id="g314"
         transform="translate(1095.4983,280)">
        <path
           d="M 0,0 V 8.601 C -3.885,4.36 -10.716,0 -20.022,0 -32.512,0 -38.403,6.835 -38.403,17.911 v 40.413 h 14.956 V 23.801 c 0,-7.895 4.126,-10.485 10.486,-10.485 5.775,0 10.371,3.18 12.961,6.48 V 58.324 H 14.966 V 0 Z"
           style="fill:#da552f;fill-opacity:1;fill-rule:nonzero;stroke:none"
           id="path316" />
      </g>
      <g
         id="g318"
         transform="translate(1163.7462,280)">
        <path
           d="m 0,0 v 35.817 c 0,7.896 -4.116,10.606 -10.486,10.606 -5.89,0 -10.361,-3.3 -12.96,-6.6 V 0 h -14.957 v 58.324 h 14.957 v -7.306 c 3.655,4.24 10.725,8.716 19.916,8.716 12.605,0 18.611,-7.066 18.611,-18.141 L 15.081,0 Z"
           style="fill:#da552f;fill-opacity:1;fill-rule:nonzero;stroke:none"
           id="path320" />
      </g>
      <g
         id="g322"
         transform="translate(1196.6615,295.6709)">
        <path
           d="M 0,0 V 29.572 H -9.421 V 42.653 H 0 V 58.204 H 14.966 V 42.653 H 26.507 V 29.572 H 14.966 V 4.005 c 0,-3.65 1.88,-6.36 5.18,-6.36 2.236,0 4.365,0.825 5.19,1.765 l 3.176,-11.426 C 26.276,-14.021 22.266,-15.671 16.021,-15.671 5.535,-15.671 0,-10.251 0,0"
           style="fill:#da552f;fill-opacity:1;fill-rule:nonzero;stroke:none"
           id="path324" />
      </g>
    </g>
  </g>
</svg>
