<svg xmlns="http://www.w3.org/2000/svg" xmlns:xlink="http://www.w3.org/1999/xlink" width="500" zoomAndPan="magnify" viewBox="0 0 375 82.499998" height="110" preserveAspectRatio="xMidYMid meet" version="1.0"><defs><g/><clipPath id="2e3f7fa84b"><path d="M 1.128906 0.0390625 L 83.050781 0.0390625 L 83.050781 81.960938 L 1.128906 81.960938 Z M 1.128906 0.0390625 " clip-rule="nonzero"/></clipPath><clipPath id="80b886aa5b"><path d="M 5.226562 0.0390625 L 78.953125 0.0390625 C 81.214844 0.0390625 83.050781 1.875 83.050781 4.136719 L 83.050781 77.867188 C 83.050781 80.128906 81.214844 81.960938 78.953125 81.960938 L 5.226562 81.960938 C 2.964844 81.960938 1.128906 80.128906 1.128906 77.867188 L 1.128906 4.136719 C 1.128906 1.875 2.964844 0.0390625 5.226562 0.0390625 Z M 5.226562 0.0390625 " clip-rule="nonzero"/></clipPath><clipPath id="c53b2e2aa5"><path d="M 10.871094 8.234375 L 73.492188 8.234375 L 73.492188 73.835938 L 10.871094 73.835938 Z M 10.871094 8.234375 " clip-rule="nonzero"/></clipPath><clipPath id="fe04259fa4"><path d="M 237 21 L 373.871094 21 L 373.871094 59 L 237 59 Z M 237 21 " clip-rule="nonzero"/></clipPath></defs><g clip-path="url(#2e3f7fa84b)"><g clip-path="url(#80b886aa5b)"><path fill="#0aa8a7" d="M 1.128906 0.0390625 L 83.050781 0.0390625 L 83.050781 81.960938 L 1.128906 81.960938 Z M 1.128906 0.0390625 " fill-opacity="1" fill-rule="nonzero"/></g></g><g clip-path="url(#c53b2e2aa5)"><path fill="#1e262b" d="M 10.882812 11.355469 C 10.882812 9.632812 12.28125 8.234375 14.011719 8.234375 L 70.351562 8.234375 C 72.078125 8.234375 73.480469 9.632812 73.480469 11.355469 L 73.480469 20.730469 C 73.480469 21.640625 73.082031 22.507812 72.386719 23.101562 L 51.570312 40.910156 L 51.570312 64.464844 C 51.570312 65.648438 50.902344 66.730469 49.839844 67.257812 L 37.320312 73.503906 C 36.359375 73.984375 35.214844 73.9375 34.296875 73.382812 C 33.375 72.824219 32.808594 71.835938 32.792969 70.761719 L 32.324219 40.90625 L 11.949219 23.078125 C 11.269531 22.484375 10.882812 21.628906 10.882812 20.730469 Z M 17.140625 14.480469 L 17.140625 19.3125 L 37.496094 37.125 C 38.160156 37.707031 38.546875 38.539062 38.5625 39.421875 L 38.972656 65.695312 L 45.3125 62.53125 L 45.3125 39.472656 C 45.3125 38.558594 45.710938 37.695312 46.402344 37.101562 L 67.21875 19.292969 L 67.21875 14.480469 Z M 17.140625 14.480469 " fill-opacity="1" fill-rule="evenodd"/></g><g fill="#ffffff" fill-opacity="1"><g transform="translate(94.684849, 58.409729)"><g><path d="M 11.28125 0 L 4.5625 0 L 4.5625 -35.09375 L 12.5 -35.09375 L 26.59375 -12.484375 L 27.21875 -12.578125 L 27.21875 -35.09375 L 33.890625 -35.09375 L 33.890625 0 L 26.78125 0 L 11.875 -24.140625 L 11.28125 -24.046875 Z M 11.28125 0 "/></g></g><g transform="translate(133.157359, 58.409729)"><g><path d="M 15.546875 0.5 C 13.117188 0.5 10.957031 0.203125 9.0625 -0.390625 C 7.164062 -0.992188 5.582031 -1.78125 4.3125 -2.75 C 3.050781 -3.726562 2.085938 -4.800781 1.421875 -5.96875 L 5.234375 -10.640625 L 5.828125 -10.640625 C 6.890625 -9.066406 8.234375 -7.816406 9.859375 -6.890625 C 11.484375 -5.960938 13.378906 -5.5 15.546875 -5.5 C 17.410156 -5.5 18.8125 -5.890625 19.75 -6.671875 C 20.695312 -7.453125 21.171875 -8.53125 21.171875 -9.90625 C 21.171875 -10.738281 21.015625 -11.4375 20.703125 -12 C 20.398438 -12.5625 19.894531 -13.039062 19.1875 -13.4375 C 18.488281 -13.84375 17.539062 -14.1875 16.34375 -14.46875 L 11.828125 -15.5 C 8.679688 -16.21875 6.332031 -17.414062 4.78125 -19.09375 C 3.238281 -20.769531 2.46875 -22.941406 2.46875 -25.609375 C 2.46875 -27.597656 2.960938 -29.34375 3.953125 -30.84375 C 4.953125 -32.34375 6.398438 -33.507812 8.296875 -34.34375 C 10.191406 -35.175781 12.457031 -35.59375 15.09375 -35.59375 C 17.800781 -35.59375 20.117188 -35.234375 22.046875 -34.515625 C 23.972656 -33.804688 25.601562 -32.71875 26.9375 -31.25 L 23.5 -26.546875 L 22.890625 -26.546875 C 21.898438 -27.585938 20.765625 -28.367188 19.484375 -28.890625 C 18.203125 -29.410156 16.738281 -29.671875 15.09375 -29.671875 C 13.1875 -29.671875 11.738281 -29.332031 10.75 -28.65625 C 9.757812 -27.988281 9.265625 -27.0625 9.265625 -25.875 C 9.265625 -24.769531 9.613281 -23.890625 10.3125 -23.234375 C 11.007812 -22.578125 12.210938 -22.066406 13.921875 -21.703125 L 18.53125 -20.734375 C 21.9375 -20.015625 24.40625 -18.796875 25.9375 -17.078125 C 27.476562 -15.359375 28.25 -13.113281 28.25 -10.34375 C 28.25 -8.15625 27.773438 -6.25 26.828125 -4.625 C 25.890625 -3 24.46875 -1.738281 22.5625 -0.84375 C 20.65625 0.0507812 18.316406 0.5 15.546875 0.5 Z M 15.546875 0.5 "/></g></g><g transform="translate(163.301759, 58.409729)"><g><path d="M 26.8125 -35.09375 L 26.8125 -29.28125 L 11.5 -29.28125 L 11.5 -20 L 25.390625 -20 L 25.390625 -14.25 L 11.5 -14.25 L 11.5 0 L 4.5625 0 L 4.5625 -35.09375 Z M 26.8125 -35.09375 "/></g></g><g transform="translate(191.670136, 58.409729)"><g><path d="M 16.75 0 L 9 0 L 0.953125 -35.09375 L 7.875 -35.09375 L 13.171875 -10.421875 L 13.78125 -10.421875 L 20.0625 -35.09375 L 26 -35.09375 L 32.40625 -10.421875 L 33 -10.421875 L 38.328125 -35.09375 L 45 -35.09375 L 36.984375 0 L 29.203125 0 L 23.0625 -22.640625 L 22.5625 -22.640625 Z M 16.75 0 "/></g></g></g><g clip-path="url(#fe04259fa4)"><g fill="#ffffff" fill-opacity="1"><g transform="translate(237.630745, 58.409729)"><g/></g><g transform="translate(249.678905, 58.409729)"><g><path d="M 25.921875 -35.09375 L 25.921875 -31.6875 L 9.4375 -31.6875 L 9.4375 -18.90625 L 24.265625 -18.90625 L 24.265625 -15.484375 L 9.4375 -15.484375 L 9.4375 0 L 5.296875 0 L 5.296875 -35.09375 Z M 25.921875 -35.09375 "/></g></g><g transform="translate(277.495274, 58.409729)"><g><path d="M 6.578125 -31.59375 C 5.742188 -31.59375 5.066406 -31.847656 4.546875 -32.359375 C 4.023438 -32.878906 3.765625 -33.539062 3.765625 -34.34375 C 3.765625 -35.144531 4.023438 -35.804688 4.546875 -36.328125 C 5.066406 -36.847656 5.742188 -37.109375 6.578125 -37.109375 C 7.410156 -37.109375 8.085938 -36.847656 8.609375 -36.328125 C 9.128906 -35.804688 9.390625 -35.144531 9.390625 -34.34375 C 9.390625 -33.539062 9.128906 -32.878906 8.609375 -32.359375 C 8.085938 -31.847656 7.410156 -31.59375 6.578125 -31.59375 Z M 4.609375 0 L 4.609375 -26.46875 L 8.515625 -26.46875 L 8.515625 0 Z M 4.609375 0 "/></g></g><g transform="translate(290.623448, 58.409729)"><g><path d="M 10.53125 0.5 C 8.664062 0.5 7.195312 -0.03125 6.125 -1.09375 C 5.050781 -2.15625 4.515625 -3.742188 4.515625 -5.859375 L 4.515625 -37.109375 L 8.421875 -37.109375 L 8.421875 -6.125 C 8.421875 -5.019531 8.632812 -4.222656 9.0625 -3.734375 C 9.488281 -3.242188 10.148438 -3 11.046875 -3 C 11.585938 -3 12.140625 -3.085938 12.703125 -3.265625 L 13.03125 -3.171875 L 13.484375 -0.09375 C 13.203125 0.09375 12.789062 0.238281 12.25 0.34375 C 11.71875 0.445312 11.144531 0.5 10.53125 0.5 Z M 10.53125 0.5 "/></g></g><g transform="translate(305.023639, 58.409729)"><g><path d="M 17.90625 -4.203125 L 19.15625 -1.390625 C 18.53125 -0.765625 17.707031 -0.296875 16.6875 0.015625 C 15.675781 0.335938 14.578125 0.5 13.390625 0.5 C 8.335938 0.5 5.8125 -2.054688 5.8125 -7.171875 L 5.8125 -23.28125 L 1.203125 -23.28125 L 1.203125 -26.5 L 5.8125 -26.5 L 5.8125 -32.09375 L 9.71875 -32.734375 L 9.71875 -26.5 L 18.234375 -26.5 L 18.234375 -23.28125 L 9.71875 -23.28125 L 9.71875 -7.5625 C 9.71875 -4.519531 11.039062 -3 13.6875 -3 C 15.125 -3 16.363281 -3.398438 17.40625 -4.203125 Z M 17.90625 -4.203125 "/></g></g><g transform="translate(325.183907, 58.409729)"><g><path d="M 25.21875 -12.34375 L 7.03125 -12.34375 C 7.144531 -9.125 7.914062 -6.757812 9.34375 -5.25 C 10.78125 -3.75 12.742188 -3 15.234375 -3 C 17.128906 -3 18.648438 -3.332031 19.796875 -4 C 20.953125 -4.675781 21.859375 -5.734375 22.515625 -7.171875 L 23.015625 -7.171875 L 25.5625 -5.671875 C 24.789062 -3.742188 23.5625 -2.234375 21.875 -1.140625 C 20.1875 -0.046875 17.972656 0.5 15.234375 0.5 C 12.679688 0.5 10.484375 0 8.640625 -1 C 6.796875 -2.007812 5.378906 -3.539062 4.390625 -5.59375 C 3.398438 -7.644531 2.90625 -10.1875 2.90625 -13.21875 C 2.90625 -16.226562 3.425781 -18.765625 4.46875 -20.828125 C 5.519531 -22.898438 6.953125 -24.441406 8.765625 -25.453125 C 10.585938 -26.472656 12.664062 -26.984375 15 -26.984375 C 18.394531 -26.984375 21.039062 -26.023438 22.9375 -24.109375 C 24.84375 -22.191406 25.804688 -19.351562 25.828125 -15.59375 C 25.828125 -14.125 25.796875 -13.132812 25.734375 -12.625 Z M 21.96875 -15.59375 C 21.894531 -18.414062 21.265625 -20.46875 20.078125 -21.75 C 18.898438 -23.03125 17.207031 -23.671875 15 -23.671875 C 12.675781 -23.671875 10.851562 -23.023438 9.53125 -21.734375 C 8.21875 -20.441406 7.414062 -18.394531 7.125 -15.59375 Z M 21.96875 -15.59375 "/></g></g><g transform="translate(353.408281, 58.409729)"><g><path d="M 4.609375 0 L 4.609375 -26.46875 L 8.328125 -26.46875 L 8.328125 -22.328125 L 8.828125 -22.203125 C 10.066406 -25.210938 12.390625 -26.71875 15.796875 -26.71875 C 17.597656 -26.71875 18.945312 -26.390625 19.84375 -25.734375 L 18.84375 -22.421875 L 18.359375 -22.328125 C 17.367188 -22.816406 16.28125 -23.0625 15.09375 -23.0625 C 12.976562 -23.0625 11.351562 -22.269531 10.21875 -20.6875 C 9.082031 -19.101562 8.515625 -16.535156 8.515625 -12.984375 L 8.515625 0 Z M 4.609375 0 "/></g></g></g></g></svg>